HIERARCHY
ROOT Hips
{
    OFFSET 0.000000 0.000000 0.000000
    CHANNELS 6 Xposition Yposition Zposition Zrotation Xrotation Yrotation
    JOINT Spine
    {
        OFFSET -0.000000 7.236184 0.000000
        CHANNELS 3 Zrotation Xrotation Yrotation
        JOINT Spine1
        {
            OFFSET -0.000000 20.420147 0.000000
            CHANNELS 3 Zrotation Xrotation Yrotation
            JOINT Neck
            {
                OFFSET -0.000000 20.336288 1.848754
                CHANNELS 3 Zrotation Xrotation Yrotation
                JOINT Head
                {
                    OFFSET -0.000000 12.354461 -1.764923
                    CHANNELS 3 Zrotation Xrotation Yrotation
                    End Site
                    {
                        OFFSET -0.000000 22.061537 0.000000
                    }
                }
            }
            JOINT LeftShoulder
            {
                OFFSET 3.573296 18.396038 -0.314103
                CHANNELS 3 Zrotation Xrotation Yrotation
                JOINT LeftArm
                {
                    OFFSET 10.880760 0.000000 0.000000
                    CHANNELS 3 Zrotation Xrotation Yrotation
                    JOINT LeftForeArm
                    {
                        OFFSET 27.185530 0.000000 0.000000
                        CHANNELS 3 Zrotation Xrotation Yrotation
                        JOINT LeftHand
                        {
                            OFFSET 27.825975 0.000000 0.000000
                            CHANNELS 3 Zrotation Xrotation Yrotation
                            End Site
                            {
                                OFFSET 13.236923 0.000000 0.000000
                            }
                        }
                    }
                }
            }
            JOINT RightShoulder
            {
                OFFSET -3.474926 18.396038 -0.314103
                CHANNELS 3 Zrotation Xrotation Yrotation
                JOINT RightArm
                {
                    OFFSET -10.880760 0.000000 0.000000
                    CHANNELS 3 Zrotation Xrotation Yrotation
                    JOINT RightForeArm
                    {
                        OFFSET -27.185530 0.000000 0.000000
                        CHANNELS 3 Zrotation Xrotation Yrotation
                        JOINT RightHand
                        {
                            OFFSET -27.825975 0.000000 0.000000
                            CHANNELS 3 Zrotation Xrotation Yrotation
                            End Site
                            {
                                OFFSET -13.236923 0.000000 0.000000
                            }
                        }
                    }
                }
            }
        }
    }
    JOINT LeftUpLeg
    {
        OFFSET 8.824615 0.000000 0.000000
        CHANNELS 3 Zrotation Xrotation Yrotation
        JOINT LeftLeg
        {
            OFFSET -0.000000 -35.111282 0.000000
            CHANNELS 3 Zrotation Xrotation Yrotation
            JOINT LeftFoot
            {
                OFFSET -0.000000 -42.324711 0.000000
                CHANNELS 3 Zrotation Xrotation Yrotation
                JOINT LeftToeBase
                {
                    OFFSET -0.000000 -5.735999 13.236923
                    CHANNELS 3 Zrotation Xrotation Yrotation
                    End Site
                    {
                        OFFSET -0.000000 0.000000 3.529846
                    }
                }
            }
        }
    }
    JOINT RightUpLeg
    {
        OFFSET -8.824615 0.000000 0.000000
        CHANNELS 3 Zrotation Xrotation Yrotation
        JOINT RightLeg
        {
            OFFSET -0.000000 -35.111282 0.000000
            CHANNELS 3 Zrotation Xrotation Yrotation
            JOINT RightFoot
            {
                OFFSET -0.000000 -42.324711 0.000000
                CHANNELS 3 Zrotation Xrotation Yrotation
                JOINT RightToeBase
                {
                    OFFSET -0.000000 -5.735999 13.236923
                    CHANNELS 3 Zrotation Xrotation Yrotation
                    End Site
                    {
                        OFFSET -0.000000 0.000000 3.529846
                    }
                }
            }
        }
    }
}
MOTION
Frames:    8
Frame Time:    0.008333
0.406294    78.648384    110.353554    0.302247    -12.086350    171.624130    -0.575000    -5.023091    0.245079    2.010523    4.130731    0.197903    3.867437    7.546095    -1.130046    3.791752    -8.047775    -0.687824    2.321069    13.824344    -3.620126    -43.789989    32.974747    -42.589771    6.728215    -7.868479    -21.750420    16.147078    -6.412350    1.221470    6.794989    19.234932    -7.420803    45.698685    37.993984    26.066931    -3.098221    -8.125632    20.541761    -12.540208    -7.123617    -4.089392    19.909468    -25.511295    12.554188    -5.024621    35.063614    9.147098    -16.072851    -13.840762    -19.143942    2.338058    -1.218376    -2.597327    -31.666321    -29.440216    -12.621522    8.694520    35.825596    -3.599256    13.052894    10.940809    -12.513594    -0.182087    -4.625564    0.198253    
0.907272    78.496361    110.322830    0.309225    -12.094646    171.629120    -0.655274    -5.076948    0.231293    1.962115    4.098948    0.190338    3.862533    7.563641    -1.125954    3.767719    -8.205800    -0.682605    2.329396    13.823872    -3.616132    -43.816002    33.057049    -42.616676    6.780898    -7.912845    -21.878836    16.058859    -6.441283    1.211556    6.816084    19.270796    -7.465568    45.792469    38.020206    26.007662    -3.065779    -8.092803    20.510353    -12.488279    -7.099880    -4.083730    20.383802    -25.571268    12.796724    -4.987712    35.357315    9.072002    -16.372740    -13.821835    -19.289438    2.350062    -1.214003    -2.610640    -31.647846    -28.903912    -12.041184    8.156480    34.553520    -3.069280    13.192820    10.877438    -11.995753    -0.211076    -4.628373    0.229815    
1.428824    78.337181    110.293175    0.306798    -12.099878    171.647797    -0.741740    -5.133093    0.216354    1.908442    4.079385    0.181947    3.853573    7.576522    -1.119716    3.737174    -8.374427    -0.676070    2.337936    13.821425    -3.610898    -43.854145    33.123295    -42.621185    6.824684    -7.954638    -21.977755    15.971159    -6.470557    1.204764    6.836709    19.305191    -7.508600    45.895042    38.041649    25.946629    -3.030537    -8.056246    20.466610    -12.432051    -7.073359    -4.078381    20.853653    -25.631088    13.031898    -4.932580    35.645004    8.984710    -16.692074    -13.789384    -19.443851    2.355617    -1.213784    -2.616809    -31.594440    -28.370449    -11.411609    7.661558    33.338585    -2.570996    13.332933    10.725681    -11.472230    -0.246256    -4.639251    0.268121    
1.965895    78.174400    110.265884    0.299178    -12.107720    171.679214    -0.828639    -5.195234    0.200783    1.850722    4.071164    0.172561    3.841155    7.585426    -1.110109    3.696585    -8.550987    -0.667995    2.346141    13.818335    -3.603353    -43.905910    33.171669    -42.601120    6.859278    -7.993007    -22.046471    15.891202    -6.499396    1.201724    6.856080    19.337576    -7.548979    46.003784    38.060436    25.885908    -2.993363    -8.016861    20.412975    -12.371684    -7.044641    -4.073648    21.318813    -25.692936    13.261371    -4.856012    35.918686    8.881948    -17.026869    -13.740360    -19.603605    2.353428    -1.218495    -2.614401    -31.501631    -27.855307    -10.740930    7.214890    32.204887    -2.113909    13.480587    10.488207    -10.960372    -0.284869    -4.656478    0.310170    
2.534003    78.004707    110.239044    0.281603    -12.110433    171.722137    -0.923705    -5.258282    0.183315    1.787653    4.073933    0.162488    3.823282    7.591946    -1.095968    3.643958    -8.739738    -0.657146    2.353704    13.815109    -3.592910    -43.975529    33.203037    -42.552277    6.886420    -8.029189    -22.087704    15.822577    -6.528456    1.202591    6.873740    19.368935    -7.586904    46.120808    38.078976    25.825174    -2.953484    -7.973693    20.349806    -12.305079    -7.013011    -4.069426    21.781107    -25.745857    13.484311    -4.751974    36.175243    8.763673    -17.385704    -13.668215    -19.772842    2.342147    -1.229410    -2.601922    -31.372704    -27.340040    -10.010914    6.804043    31.130215    -1.685664    13.650262    10.154203    -10.456904    -0.325078    -4.678763    0.353961    
3.118942    77.834618    110.214867    0.260960    -12.116332    171.775391    -1.017151    -5.326736    0.165018    1.721719    4.085835    0.151218    3.799793    7.596992    -1.076396    3.578746    -8.933743    -0.642968    2.360080    13.812700    -3.578573    -44.063690    33.215904    -42.471985    6.905785    -8.061983    -22.100632    15.773211    -6.556624    1.207664    6.888676    19.398458    -7.620496    46.241253    38.099285    25.767977    -2.912386    -7.928138    20.280487    -12.233330    -6.979414    -4.065948    22.236979    -25.794203    13.699918    -4.620956    36.403282    8.629897    -17.756618    -13.570168    -19.944450    2.321043    -1.247858    -2.578565    -31.201977    -26.851345    -9.245211    6.440999    30.156958    -1.305403    13.847798    9.726037    -9.990863    -0.362803    -4.706415    0.395054    
3.727001    77.664009    110.192963    0.237094    -12.123680    171.837997    -1.110387    -5.398994    0.145429    1.653061    4.105339    0.138520    3.768865    7.602098    -1.050253    3.500257    -9.133019    -0.624385    2.365106    13.812133    -3.558886    -44.172863    33.211418    -42.357269    6.919044    -8.092017    -22.087566    15.747040    -6.584002    1.216954    6.899676    19.426609    -7.649359    46.364670    38.125206    25.715622    -2.870194    -7.880340    20.206490    -12.155904    -6.943927    -4.063454    22.689096    -25.833677    13.906437    -4.462589    36.598320    8.481624    -18.139700    -13.440692    -20.116344    2.289302    -1.276081    -2.543437    -30.988865    -26.385536    -8.442356    6.120578    29.282040    -0.971615    14.084236    9.192965    -9.570059    -0.397028    -4.739995    0.432342    
4.358679    77.494591    110.173706    0.211843    -12.133717    171.908951    -1.201614    -5.475174    0.124080    1.582353    4.130476    0.124553    3.729431    7.608433    -1.016588    3.407649    -9.335130    -0.600581    2.367838    13.814295    -3.532306    -44.304298    33.190399    -42.205063    6.927978    -8.119347    -22.050516    15.747335    -6.610157    1.230313    6.906107    19.453363    -7.672596    46.488876    38.160946    25.669630    -2.827809    -7.831253    20.129953    -12.073152    -6.907237    -4.062430    23.139320    -25.863152    14.101019    -4.279812    36.755131    8.319995    -18.530275    -13.275634    -20.282440    2.246307    -1.316144    -2.495857    -30.731730    -25.947342    -7.611689    5.841559    28.513741    -0.687877    14.367295    8.546407    -9.206474    -0.426519    -4.780699    0.464485    
